<svg xmlns="http://www.w3.org/2000/svg" viewBox="0 0 430.14 145.18"><defs><style>.cls-1{fill:#fff;}</style></defs><g id="Layer_2" data-name="Layer 2"><g id="Layer_2_copy" data-name="Layer 2 copy"><path class="cls-1" d="M49.78,121.16a3.19,3.19,0,1,0,2.19.93A2.91,2.91,0,0,0,49.78,121.16Z"/><path class="cls-1" d="M65.81,17.42a.8.8,0,0,0-.22-.13,1,1,0,0,0-.38-.06H34a.9.9,0,0,0-.73.73,1,1,0,0,0,.06.38.91.91,0,0,0,.07.14l.38.21H65.21a1.14,1.14,0,0,0,.39-.06l.19-.09.09-.2a1,1,0,0,0,.06-.38,1,1,0,0,0-.07-.4C65.85,17.5,65.82,17.45,65.81,17.42Z"/><path class="cls-1" d="M99.55,8V7.84A6.75,6.75,0,0,0,98.91,5a8.29,8.29,0,0,0-1.66-2.48A8.86,8.86,0,0,0,94.84.88,6.6,6.6,0,0,0,92,.25H7.59A7.52,7.52,0,0,0,4.65.82,6.27,6.27,0,0,0,2.37,2.48l0,0,0,0A8.56,8.56,0,0,0,.63,5,6.59,6.59,0,0,0,0,7.84V135.91a8.13,8.13,0,0,0,2.41,5.51,7.11,7.11,0,0,0,5.35,2.29h84a7.15,7.15,0,0,0,5.36-2.29,8,8,0,0,0,2.4-5.34ZM97.41,136v.16a6.19,6.19,0,0,1-1.68,3.6,5.22,5.22,0,0,1-3.93,1.68h-84a5.27,5.27,0,0,1-3.89-1.56,5.94,5.94,0,0,1-1.72-3.74V7.84a5,5,0,0,1,.48-2.07A5.65,5.65,0,0,1,3.78,4,5.9,5.9,0,0,1,5.52,2.87,5.55,5.55,0,0,1,7.76,2.4H92a5,5,0,0,1,2.22.5A6.13,6.13,0,0,1,95.77,4,6,6,0,0,1,96.9,5.62a4.89,4.89,0,0,1,.51,2.22Z"/><path class="cls-1" d="M209.78,104.34a2.87,2.87,0,1,0,2,.84A2.77,2.77,0,0,0,209.78,104.34Z"/><path class="cls-1" d="M212.09,16.76a3.24,3.24,0,0,0,1-2.62,2.84,2.84,0,0,0-1-2.18,3.26,3.26,0,0,0-4.64,0,2.82,2.82,0,0,0-1,2.18,3.27,3.27,0,0,0,1,2.62,3.23,3.23,0,0,0,2.33,1A3.17,3.17,0,0,0,212.09,16.76Z"/><path class="cls-1" d="M289.32,8.84a6.89,6.89,0,0,0-2.1-5.07,6.89,6.89,0,0,0-5.07-2.1H137.4a6.85,6.85,0,0,0-5.06,2.1,6.86,6.86,0,0,0-2.11,5.07V116.08a6.52,6.52,0,0,0,2.09,5,7,7,0,0,0,5.08,2h54.41l-.14,1.63-.94,10.87v.37l-.07.23a8.15,8.15,0,0,1-3.45,4.37l-.37.23h-6.09a1.41,1.41,0,0,0-1.33,1.33,1.24,1.24,0,0,0,.41.92,1.26,1.26,0,0,0,.92.41H238.8a1.41,1.41,0,0,0,1.33-1.33,1.26,1.26,0,0,0-.41-.92,1.24,1.24,0,0,0-.92-.41h-5.9l-.37-.23a8.08,8.08,0,0,1-3.44-4.37L229,136l0-.18-.94-10.93-.14-1.63h54.22a7.17,7.17,0,0,0,7.17-7.17Zm-63.9,131.74H191.71l1.08-2.18a5.51,5.51,0,0,0,.44-1.26c.12-.52.24-1.07.36-1.66l.74-11,.1-1.4h30.7l.09,1.4.75,11c.11.58.23,1.13.35,1.65a5.22,5.22,0,0,0,.44,1.26l1.1,2.18Zm61.06-45v20.35a4.41,4.41,0,0,1-4.33,4.33H137.4a4.41,4.41,0,0,1-4.33-4.33V94H286.48Zm0-5.66v1.5H133.07V8.84a4.47,4.47,0,0,1,1.29-3.23,4.23,4.23,0,0,1,3-1.29H282.15a4.23,4.23,0,0,1,3,1.29,4.47,4.47,0,0,1,1.29,3.23Z"/><path class="cls-1" d="M426.54,135.19a17.22,17.22,0,0,0,3.3-6.24v-.06a4.59,4.59,0,0,0,.2-.9,8,8,0,0,0,.08-1.12,9,9,0,0,0-.54-3.15,10.86,10.86,0,0,0-1.49-2.74l-.08-.11-.06-.11-.12-.24c-2.2-2.88-4.58-5.68-7.07-8.34a111,111,0,0,0-8-7.75c-1.09-1-2.11-1.92-3-2.84l-3-3.14a14,14,0,0,0-3.89-2.33,13.85,13.85,0,0,0-5.17-1,13.11,13.11,0,0,0-3.78.56,15.22,15.22,0,0,0-3.51,1.55h-.05a18.65,18.65,0,0,1-8.94,2.56,13.8,13.8,0,0,1-5.54-1.16,21.56,21.56,0,0,1-9.89-8.15l0,0,0,0L356.73,75,355.4,72.7h.06a14.82,14.82,0,0,1-.84-2.06A16.75,16.75,0,0,1,356.3,56.8a16.87,16.87,0,0,1,6.58-6.07,14.17,14.17,0,0,0,5.24-5,13.35,13.35,0,0,0,2-7.24,12.52,12.52,0,0,0-.08-1.53,10.05,10.05,0,0,0-.23-1.32l0-.18V35.3c-.34-1.22-.71-2.53-1.11-3.89s-.8-2.85-1.18-4.34l-.18-.71a91.69,91.69,0,0,0-3.09-10.66A70.08,70.08,0,0,0,359.93,6l0,0,0-.05a9.62,9.62,0,0,0-3.42-4.11A10.15,10.15,0,0,0,351.22,0a20.1,20.1,0,0,0-5.33,1.07,25.7,25.7,0,0,0-4.67,2.19l-.05.05-.15.15-.18.1a42.34,42.34,0,0,0-21.27,32.07,63.32,63.32,0,0,0,1.75,23.47,99.77,99.77,0,0,0,10.77,25.59l12.72,21.6a106.62,106.62,0,0,0,17.12,22.09,60.89,60.89,0,0,0,19.63,13v0a40.87,40.87,0,0,0,8.64,2.84,45.53,45.53,0,0,0,9.37,1,52.79,52.79,0,0,0,11.24-1.46c4.21-.91,10.59-4.25,10.59-4.25A17.63,17.63,0,0,0,426.54,135.19ZM420,137.46a45.25,45.25,0,0,1-9.91,4.06A40.73,40.73,0,0,1,399,143a40.29,40.29,0,0,1-8.65-.93,37.54,37.54,0,0,1-7.71-2.59,60.7,60.7,0,0,1-19.25-12.79,98.65,98.65,0,0,1-16.55-21.39l-12.72-21.6A94.57,94.57,0,0,1,323.7,58.94,63.85,63.85,0,0,1,322,36l.07-.51.18-.19a39,39,0,0,1,6.45-17.1A41.88,41.88,0,0,1,342.22,5.42a21.87,21.87,0,0,1,4.12-1.91,18.89,18.89,0,0,1,4.76-1h.12a7.92,7.92,0,0,1,3.1.75,8.47,8.47,0,0,1,3.32,3.11c.14.19.26.38.39.58L358,7a97.84,97.84,0,0,1,4,9.65,114.16,114.16,0,0,1,3.27,11.12l2,7.2.3.9a4.87,4.87,0,0,1,.25,1.54v1.07A11.26,11.26,0,0,1,366,44.56a11.48,11.48,0,0,1-4.58,4.17,18.69,18.69,0,0,0-9.21,12c-1.28,5.19-.43,10.22,2.62,15.39l9,15.36a22.87,22.87,0,0,0,11.62,9.63,16.35,16.35,0,0,0,6.11,1.21,20.17,20.17,0,0,0,9.79-2.82l2.23-1a6.65,6.65,0,0,1,.75-.26,11.2,11.2,0,0,1,3.31-.52,11.71,11.71,0,0,1,4.31.82,10.42,10.42,0,0,1,3.55,2.3c.8.8,1.7,1.66,2.65,2.55s1.91,1.82,2.9,2.8l.16.16c2.64,2.4,5.22,4.94,7.67,7.56s4.92,5.48,7.33,8.48h0v0a8.47,8.47,0,0,1,1.09,1.94,6.82,6.82,0,0,1,.47,2.53,13.17,13.17,0,0,1-3.24,7c-.26.27-.5.56-.77.82Z"/></g></g></svg>